<svg version="1.2" xmlns="http://www.w3.org/2000/svg" viewBox="0 0 488 402" width="488" height="402">
	<title>New Project</title>
	<defs>
	</defs>
	<style>
	</style>
	<use id="Background" href="#img1" x="0" y="0" />
	<path id="B" fill="#fff" aria-label="B"  d="m109.05 337.78q-7.54 0-15.43-1.03q-21.61-2.75-31.9-12.69q-9.95-9.95-9.95-21.61q0-12.69 11.32-22.98q11.32-10.64 31.9-10.64q13.72 0 29.84 5.49q8.92 3.09 21.27 10.29q12.35 7.21 28.47 15.09q17.15-16.46 31.21-40.81q14.41-24.36 28.47-52.14q14.41-28.12 30.87-56.25q16.81-28.13 38.76-52.82l19.89-22.3q-12.69-2.06-26.41-3.08q-13.72-1.38-28.47-1.38q-18.52 0-38.07 2.06q-19.55 1.72-39.1 5.83q-32.24 6.86-54.54 21.95q-22.29 15.1-33.96 32.93q-11.32 17.5-11.32 32.93q0 10.63 5.84 19.21q6.17 8.23 18.17 12q7.55 2.4 15.44 2.4q11.66 0 20.58-4.8q8.92-4.8 15.09-11.66q6.18-7.2 8.92-13.72q3.09-6.52 2.74-9.6q0-2.4 3.43-2.4q3.43 0 3.43 5.14v0.34q0 14.07-8.57 24.36q-8.58 10.29-21.61 15.77q-12.69 5.49-25.73 5.49q-8.23 0-17.15-2.74q-18.52-6.52-27.44-18.87q-8.91-12.69-8.91-27.78q0-14.06 7.54-28.81q7.89-15.09 22.98-28.47q15.1-13.72 37.39-23.67q22.64-9.94 52.14-14.06q15.77-2.4 31.21-3.43q15.43-1.03 29.84-1.03q19.89 0 38.76 2.06q19.21 1.71 36.01 5.49q4.81-4.12 9.61-7.21q5.14-3.08 9.26-4.8q2.4-1.03 4.12-1.37q1.71-0.34 2.74-0.34q2.06 0 2.06 1.37q0 1.71-5.15 5.49q-3.43 2.4-6.51 5.48q-3.09 2.75-3.78 4.12q34.99 8.92 56.6 24.7q21.95 15.43 21.95 36.7q0 10.97-7.2 24.01q-7.55 12.69-20.93 20.58q-13.37 7.54-28.47 11.32q-15.09 3.43-28.12 4.11q11.32 3.43 24.69 10.29q13.72 6.52 25.04 16.12q11.67 9.61 15.44 22.64q2.4 8.23 2.4 16.81q0 18.18-10.63 32.93q-10.29 14.75-27.79 25.38q-17.15 10.29-37.73 16.12q-20.58 5.49-40.81 5.49q-7.55 0-15.44-1.03q-32.93-4.12-54.54-10.29q-21.26-6.18-37.38-13.72q-33.27 25.04-72.38 25.04zm174.93-9.95q21.27 0 38.76-6.52q17.5-6.51 30.19-17.15q13.03-10.63 19.89-23.66q7.2-13.04 7.2-25.73q0-12-7.2-23.32q-7.2-11.32-22.64-18.87q-13.37-6.51-27.78-10.63q-14.06-4.46-24.35-7.55q-10.29-3.43-12.01-6.86q0-4.11 3.43-5.48q3.78-1.72 9.61-1.72q6.86 0 16.46 1.03q9.6 1.03 20.24 1.03q10.97 0 22.29-4.8q11.66-5.15 21.27-13.38q9.6-8.58 15.43-18.52q6.18-10.29 6.18-20.93q0-9.6-6.52-18.86q-6.52-9.26-21.61-16.12q-15.09-6.86-32.58-10.98q-17.15 23.67-34.3 53.17q-17.15 29.15-34.3 59.34q-17.15 29.84-34.65 56.59q-17.49 26.75-34.98 45.96q-4.12 4.46-6.52 6.86q-2.4 2.06-6.52 5.83q16.12 6.52 36.7 12.35q20.58 5.83 47 8.23q2.74 0.35 5.48 0.69q3.09 0 5.83 0zm-181.79-0.69q19.21 1.03 34.99-4.45q16.12-5.84 29.84-16.13q-12-5.83-24.69-12q-12.35-6.52-26.42-11.66q-9.94-3.43-18.17-3.43q-12.7 0-19.21 6.86q-6.52 6.51-6.52 15.09q0 8.92 7.55 17.15q7.54 7.89 22.63 8.57z" />
</svg>