<svg version="1.2" xmlns="http://www.w3.org/2000/svg" viewBox="0 0 1668 471" width="1668" height="471">
	<title>New Project</title>
	<defs>
		</defs>
	<style>
	</style>
	<use id="Background" href="#img1" x="-62" y="0" />
	<path id="Bhagyamudra" fill="#fff" aria-label="Bhagyamudra"  d="m74.05 347.78q-7.54 0-15.43-1.03q-21.61-2.75-31.9-12.69q-9.95-9.95-9.95-21.61q0-12.69 11.32-22.98q11.32-10.64 31.9-10.64q13.72 0 29.84 5.49q8.92 3.09 21.27 10.29q12.35 7.21 28.47 15.09q17.15-16.46 31.21-40.81q14.41-24.36 28.47-52.14q14.41-28.12 30.87-56.25q16.81-28.13 38.76-52.82l19.89-22.3q-12.69-2.06-26.41-3.08q-13.72-1.38-28.47-1.38q-18.52 0-38.07 2.06q-19.55 1.72-39.1 5.83q-32.24 6.86-54.54 21.95q-22.29 15.1-33.96 32.93q-11.32 17.5-11.32 32.93q0 10.63 5.84 19.21q6.17 8.23 18.17 12q7.55 2.4 15.44 2.4q11.66 0 20.58-4.8q8.92-4.8 15.09-11.66q6.18-7.2 8.92-13.72q3.09-6.52 2.74-9.6q0-2.4 3.43-2.4q3.43 0 3.43 5.14v0.34q0 14.07-8.57 24.36q-8.58 10.29-21.61 15.77q-12.69 5.49-25.73 5.49q-8.23 0-17.15-2.74q-18.52-6.52-27.44-18.87q-8.91-12.69-8.91-27.78q0-14.06 7.54-28.81q7.89-15.09 22.98-28.47q15.1-13.72 37.39-23.67q22.64-9.94 52.14-14.06q15.77-2.4 31.21-3.43q15.43-1.03 29.84-1.03q19.89 0 38.76 2.06q19.21 1.71 36.01 5.49q4.81-4.12 9.61-7.21q5.14-3.08 9.26-4.8q2.4-1.03 4.12-1.37q1.71-0.34 2.74-0.34q2.06 0 2.06 1.37q0 1.71-5.15 5.49q-3.43 2.4-6.51 5.48q-3.09 2.75-3.78 4.12q34.99 8.92 56.6 24.7q21.95 15.43 21.95 36.7q0 10.97-7.2 24.01q-7.55 12.69-20.93 20.58q-13.37 7.54-28.47 11.32q-15.09 3.43-28.12 4.11q11.32 3.43 24.69 10.29q13.72 6.52 25.04 16.12q11.67 9.61 15.44 22.64q2.4 8.23 2.4 16.81q0 18.18-10.63 32.93q-10.29 14.75-27.79 25.38q-17.15 10.29-37.73 16.12q-20.58 5.49-40.81 5.49q-7.55 0-15.44-1.03q-32.93-4.12-54.54-10.29q-21.26-6.18-37.38-13.72q-33.27 25.04-72.38 25.04zm174.93-9.95q21.27 0 38.76-6.52q17.5-6.51 30.19-17.15q13.03-10.63 19.89-23.66q7.2-13.04 7.2-25.73q0-12-7.2-23.32q-7.2-11.32-22.64-18.87q-13.37-6.51-27.78-10.63q-14.06-4.46-24.35-7.55q-10.29-3.43-12.01-6.86q0-4.11 3.43-5.48q3.78-1.72 9.61-1.72q6.86 0 16.46 1.03q9.6 1.03 20.24 1.03q10.97 0 22.29-4.8q11.66-5.15 21.27-13.38q9.6-8.58 15.43-18.52q6.18-10.29 6.18-20.93q0-9.6-6.52-18.86q-6.52-9.26-21.61-16.12q-15.09-6.86-32.58-10.98q-17.15 23.67-34.3 53.17q-17.15 29.15-34.3 59.34q-17.15 29.84-34.65 56.59q-17.49 26.75-34.98 45.96q-4.12 4.46-6.52 6.86q-2.4 2.06-6.52 5.83q16.12 6.52 36.7 12.35q20.58 5.83 47 8.23q2.74 0.35 5.48 0.69q3.09 0 5.83 0zm-181.79-0.69q19.21 1.03 34.99-4.45q16.12-5.84 29.84-16.13q-12-5.83-24.69-12q-12.35-6.52-26.42-11.66q-9.94-3.43-18.17-3.43q-12.7 0-19.21 6.86q-6.52 6.51-6.52 15.09q0 8.92 7.55 17.15q7.54 7.89 22.63 8.57zm291.21 0q14.41-29.49 29.84-61.74q15.78-32.58 32.24-65.51q16.47-32.93 32.59-62.77q5.83-10.29 10.63-16.12q5.15-5.83 13.38-5.83q3.09 0 7.2 1.03q4.12 1.03 7.89 0.34q-4.46 4.8-12.35 16.81q-7.54 12-17.15 28.81q-9.26 16.81-19.89 36.36q-10.29 19.21-20.58 39.1q-9.95 19.55-18.52 36.7q6.86-8.92 14.06-16.8q7.2-7.89 14.06-13.72q7.55-6.86 18.87-14.41q11.66-7.55 22.98-13.03q11.66-5.49 18.52-5.49q2.4 0 3.43 0.34q0 0-3.77 6.86q-3.77 6.86-9.61 17.49q-5.48 10.64-11.66 22.98q-5.83 12.35-10.29 23.67q-4.46 10.98-5.83 18.18q-1.03 5.49-1.03 9.26q0 5.49 2.06 7.55q2.06 1.71 4.46 1.71q5.83 0 12.69-7.2q6.86-7.2 13.38-17.49q6.51-10.64 11.66-20.58q5.49-9.95 8.23-15.44q2.06-3.77 4.12-3.77q2.06 0 2.06 2.74q0 1.37-1.03 4.12q-4.46 8.92-10.29 20.24q-5.49 10.97-12.69 21.26q-6.86 9.95-15.44 16.47q-8.23 6.51-17.84 6.51q-6.86 0-14.06-4.8q-7.2-4.8-7.2-17.49q0-3.78 0.68-7.89q0.69-4.46 2.41-9.95q2.05-6.86 6.86-15.09q4.8-8.58 12.34-21.27q3.43-5.83 3.43-9.26q0-4.11-4.11-4.11q-3.43 0-9.26 3.43q-5.83 3.43-14.75 12q-8.58 8.23-21.27 24.01q-12.69 15.78-27.1 44.25q-2.4 4.46-5.48 4.8q-2.75 0-7.55 0.34q-3.09 0.35-6.17 0.69q-3.09 0-5.15 1.71zm221.58-1.71q-3.77 0.34-8.58-1.72q-4.8-2.05-8.57-7.54q-3.43-5.49-3.43-15.44q0-8.23 3.09-19.89q-4.12 6.52-10.64 16.12q-6.51 9.26-14.06 16.46q-6.52 6.18-12.35 8.92q-5.83 2.75-10.63 2.75q-8.92 0-14.41-7.89q-5.48-8.23-5.48-21.27q0-13.72 6.86-31.21q6.86-17.49 22.29-36.36q9.95-12 24.01-19.21q14.41-7.54 28.13-7.54q7.89 0 15.09 2.74q7.2 2.4 12.69 8.23q2.4 2.4 2.4 5.49q0 2.06-1.71 3.43q-1.72 1.37-4.46 0.69q-3.78-12.01-16.12-12.01q-5.84 0-13.38 3.77q-11.66 6.18-24.35 20.24q-12.35 14.06-21.61 29.16q-1.38 2.05-4.46 7.89q-2.75 5.83-5.49 13.03q-2.74 7.2-3.77 14.06q-0.35 2.06-0.35 3.09q0 0.69 0 2.4q0 11.32 8.58 11.32q10.29 0 23.32-15.09q8.92-10.98 16.12-22.98q7.21-12.01 14.75-25.73q5.15-9.26 9.61-15.43q4.46-6.18 12.69-6.18q3.77 0 7.54 1.03q3.78 1.03 7.89 0.34q-2.74 2.75-7.54 10.29q-4.46 7.55-9.61 17.15q-5.14 9.61-9.26 19.56q-4.11 9.94-5.83 17.15q-0.34 2.05-1.03 5.83q-0.34 3.77-0.34 5.48q0 9.61 5.49 9.61q5.48 0 11.66-6.52q6.52-6.52 12.69-16.12q6.17-9.6 11.32-19.21q5.14-9.94 8.23-16.12q1.37-3.43 4.12-3.43q1.71 0 1.71 2.4q0 1.03-1.03 3.78q-4.11 8.57-9.94 19.55q-5.84 10.63-12.7 20.92q-6.86 9.95-14.4 16.81q-7.2 6.51-14.75 7.2zm23.32 108.39q-32.58 0-32.58-26.76q0-12.69 8.92-22.63q8.91-9.95 21.26-17.15q17.15-10.29 33.27-16.47q16.12-6.17 30.53-10.63q14.75-4.8 27.78-10.29q6.18-18.18 8.24-38.07q1.02-10.29 1.02-17.84q0-7.89-1.02-10.29q-3.78 7.2-9.95 17.49q-6.18 10.29-14.06 20.24q-7.89 9.6-17.15 16.12q-8.92 6.52-18.53 6.52q-3.43 0-6.51-1.03q-9.61-4.12-14.07-11.66q-4.11-7.55-4.11-17.15q0-15.44 8.92-33.27q8.91-17.84 21.26-32.59q9.95-12 23.33-19.21q13.37-7.2 27.09-7.2q15.78 0 29.5 10.63q5.15 4.12 5.15 8.92q0 5.15-4.12 5.15q-3.43 0-4.8-4.46q-4.8-12.69-15.44-12.69q-8.57 0-19.55 7.54q-10.97 7.2-20.58 18.18q-8.23 9.26-16.12 21.27q-7.55 12-12.69 23.66q-4.8 11.67-4.8 20.24q0 5.83 2.74 9.95q2.75 4.11 8.58 4.11q7.89 0 16.46-7.54q8.92-7.55 16.81-18.52q8.23-10.98 14.06-22.3q6.17-11.32 8.58-18.86q2.4-7.89 6.51-9.61q4.12-2.06 8.23-2.06q4.12 0 6.86-2.05q1.38 7.54 1.72 15.43q0.69 7.55 0.69 15.44q0 26.41-6.86 53.16q6.17-4.8 12.69-10.29q6.86-5.83 11.66-12.35q8.57-11.66 12.69-21.26q4.46-9.95 6.86-15.44q2.06-3.43 4.46-3.43q2.06 0 2.06 2.06q0 1.71-1.38 4.12q-8.57 18.17-15.77 31.21q-7.21 12.69-15.78 21.61q-8.58 8.57-21.27 14.75q-5.49 16.46-16.46 34.64q-10.98 18.18-25.73 34.3q-14.75 16.12-32.24 26.41q-17.49 9.95-36.36 9.95zm-8.23-6.86q7.55 0 15.78-3.09q8.57-3.43 16.12-7.89q7.55-4.46 11.66-7.54q7.89-6.18 16.12-15.44q8.24-9.26 14.41-17.84q5.83-8.23 10.98-17.15q5.48-9.26 9.26-18.17q-2.75 1.02-6.86 2.4q-3.78 1.37-5.49 2.05q-11.32 3.78-25.04 8.92q-13.38 4.8-26.75 10.98q-13.38 5.83-24.36 13.03q-9.6 6.52-16.12 17.15q-6.17 10.64-6.17 18.52q0 5.84 3.77 9.95q4.12 4.12 12.69 4.12zm120.39 6.86q-17.83 0-25.38-6.86q-7.54-7.21-7.54-16.81q0-5.14 1.37-8.92q1.37-3.77 4.11-9.6q4.81-9.95 13.38-17.15q8.58-7.2 18.52-11.66q17.84-8.24 40.48-13.38q22.98-5.15 43.9-11.32q6.52-11.32 12.01-25.72q5.48-14.75 9.94-28.47q4.46-14.07 7.21-22.98q-4.12 7.54-10.64 18.52q-6.17 10.63-14.06 20.92q-7.89 10.29-17.15 17.15q-8.92 6.86-18.86 6.86q-3.78 0-9.27-1.71q-5.14-1.72-9.26-6.18q-3.77-4.8-3.77-14.06q0-8.92 4.12-17.15q4.46-8.58 8.23-16.47q-1.03 0-2.4-0.68q-1.03-0.69-1.03-2.06q0-1.37 0.68-2.74q1.38-2.75 3.09-5.83q1.72-3.09 3.09-6.52q5.14-10.63 10.29-20.24q5.14-9.95 8.92-17.49q3.77-7.55 13.03-7.55h21.27q-2.4 2.06-6.18 4.8q-3.43 2.41-6.51 7.55q-9.27 15.78-16.13 30.53q-6.86 14.4-14.74 30.87q-3.78 7.89-5.49 14.4q-1.72 6.52-1.72 11.32q0 11.32 7.55 11.32q8.23 0 19.89-13.38q9.61-11.31 19.21-26.75q9.95-15.78 18.87-32.24q9.26-16.81 16.12-30.87q3.77-7.55 13.37-7.55h18.87q-9.95 6.86-15.44 17.84q-5.14 10.97-11.66 28.12q-7.2 18.87-13.72 39.11q-6.17 19.89-14.06 40.13q11.32-3.78 25.38-11.66q14.41-7.89 24.35-22.64q7.89-11.66 13.38-22.3q5.83-10.97 8.23-15.78q1.37-3.43 3.78-3.43q2.4 0 2.4 3.09q0 1.72-1.03 3.77q-8.92 17.84-16.12 30.19q-6.86 12-15.44 20.92q-8.23 8.58-20.24 15.44q-12 6.51-30.52 13.37q-8.23 14.75-18.87 30.87q-10.29 15.78-23.66 29.84q-13.04 13.72-29.16 22.64q-15.78 8.58-34.99 8.58zm-8.23-6.86q11.32 0 23.33-6.86q12-6.86 23.32-17.15q11.32-10.64 20.58-21.27q9.6-10.97 15.44-19.21q1.71-2.4 3.77-6.17q2.06-3.77 4.11-7.2q-16.8 4.46-37.04 9.94q-19.89 5.15-34.64 11.67q-16.47 6.86-26.07 19.55q-9.26 12.69-9.26 22.63q0 6.18 3.77 10.29q4.12 3.78 12.69 3.78zm266.17-101.53q-3.77 0.34-8.57-1.72q-4.81-2.05-8.58-7.54q-3.43-5.49-3.43-15.44q0-8.23 3.09-19.89q-4.12 6.52-10.64 16.12q-6.51 9.26-14.06 16.46q-6.52 6.18-12.35 8.92q-5.83 2.75-10.63 2.75q-8.92 0-14.41-7.89q-5.48-8.23-5.48-21.27q0-13.72 6.86-31.21q6.86-17.49 22.29-36.36q9.95-12 24.01-19.21q14.41-7.54 28.13-7.54q7.89 0 15.09 2.74q7.2 2.4 12.69 8.23q2.4 2.4 2.4 5.49q0 2.06-1.71 3.43q-1.72 1.37-4.46 0.69q-3.78-12.01-16.12-12.01q-5.83 0-13.38 3.77q-11.66 6.18-24.35 20.24q-12.35 14.06-21.61 29.16q-1.37 2.05-4.46 7.89q-2.75 5.83-5.49 13.03q-2.74 7.2-3.77 14.06q-0.35 2.06-0.35 3.09q0 0.69 0 2.4q0 11.32 8.58 11.32q10.29 0 23.32-15.09q8.92-10.98 16.12-22.98q7.21-12.01 14.75-25.73q5.15-9.26 9.61-15.43q4.46-6.18 12.69-6.18q3.77 0 7.54 1.03q3.78 1.03 7.89 0.34q-2.74 2.75-7.54 10.29q-4.46 7.55-9.61 17.15q-5.14 9.61-9.26 19.56q-4.11 9.94-5.83 17.15q-0.34 2.05-1.03 5.83q-0.34 3.77-0.34 5.48q0 9.61 5.49 9.61q5.49 0 11.66-6.52q6.52-6.52 12.69-16.12q6.17-9.6 11.32-19.21q5.14-9.94 8.23-16.12q1.37-3.43 4.12-3.43q1.71 0 1.71 2.4q0 1.03-1.03 3.78q-4.11 8.57-9.94 19.55q-5.83 10.63-12.69 20.92q-6.86 9.95-14.41 16.81q-7.2 6.51-14.75 7.2zm14.41 0.69q12.69-24.36 24.01-48.71q11.32-24.7 22.98-46.65q6.86-12.35 11.32-17.15q4.8-5.14 12.69-5.14q2.74 0 5.83 1.03q3.09 0.68 6.17 0.68q2.06 0 3.09-0.34q-4.8 2.74-12.35 13.72q-7.54 10.63-15.43 24.69q-7.89 14.07-14.07 26.42q6.52-7.89 13.38-15.78q7.2-7.89 15.78-15.09q7.54-6.52 15.78-14.07q8.57-7.89 16.8-13.37q8.24-5.49 14.41-5.49q2.4 0 3.09 0.34q6.51 2.74 6.51 8.92q0 2.06-1.71 6.17q-4.46 11.66-11.66 24.01q-6.86 12.01-13.04 24.36q5.15-6.18 12.69-15.1q7.89-8.91 15.78-15.77q7.55-6.86 19.21-14.41q11.66-7.55 22.98-13.03q11.32-5.49 18.18-5.49q2.4 0 3.43 0.34q0 0-3.77 6.86q-3.78 6.52-9.61 17.49q-5.49 10.64-11.32 22.98q-5.83 12.01-10.63 23.33q-4.46 10.97-5.83 18.52q-1.03 4.46-1.03 8.23q0 5.49 2.06 7.21q2.06 1.71 4.46 1.71q6.86 0 14.06-7.2q7.2-7.21 13.72-17.15q6.86-10.29 12.01-19.9q5.14-9.94 7.54-15.09q2.06-3.77 4.12-3.77q2.06 0 2.06 2.74q0 1.72-1.03 3.78q-4.12 7.88-9.95 18.86q-5.49 10.98-12.69 21.61q-7.2 10.29-16.12 17.49q-8.58 6.86-18.52 6.86q-7.21 0-14.75-4.8q-7.21-4.8-7.21-17.84q0-7.2 3.09-17.49q2.4-6.86 7.2-15.78q5.15-8.91 12.35-20.58q3.43-5.83 3.43-9.26q0-4.11-4.11-4.11q-3.43 0-9.61 3.43q-5.83 3.43-14.75 12q-5.49 5.15-13.03 14.41q-7.2 8.91-14.75 19.55q-7.55 10.63-13.03 20.92q-5.49 10.29-7.21 18.18q-5.14 0-8.23-4.12q-3.09-4.45-3.09-10.29q0-1.02 0-2.05q0-1.03 0.35-2.41q1.71-10.63 5.48-19.89q3.78-9.26 8.58-19.21q3.77-7.2 7.55-15.43q3.77-8.58 3.77-13.04q0-2.74-2.06-2.74q-2.4 0-7.89 3.77q-5.49 3.43-15.09 12.35q-8.58 8.23-20.92 23.67q-12.01 15.43-26.41 43.9q-2.06 3.78-4.81 4.8q-2.74 0.69-8.57 0.69q-3.77 0-6.52 0.34q-2.4 0-5.14 1.38zm217.8-1.72q-3.77 0-9.26-1.71q-5.14-1.72-9.26-6.18q-3.77-4.8-3.77-14.06q0-8.92 4.11-17.15q4.46-8.58 8.23-16.47q-1.02 0-2.4-0.68q-1.03-0.69-1.03-2.06q0-1.37 0.69-2.74q1.37-2.75 3.09-5.83q1.71-3.09 3.08-6.52q5.15-10.63 10.29-20.24q5.15-9.95 8.92-17.49q3.78-7.55 13.04-7.55h21.26q-5.83 4.46-10.63 9.95q-4.46 5.14-11.32 19.21q0 0-2.4 4.8q-2.4 4.8-6.17 12.35q-3.43 7.2-7.21 14.75q-3.43 7.54-5.83 12.69q-4.46 9.6-5.83 15.43q-1.37 5.49-1.37 10.29q0 11.32 7.54 11.32q8.24 0 19.9-13.38q9.6-11.31 18.86-27.09q9.26-15.78 17.5-32.59q8.57-16.8 15.09-30.18q3.77-7.55 13.38-7.55h18.86q-5.14 4.12-8.57 7.89q-3.43 3.43-6.86 9.61q-3.09 5.83-8.58 16.8q-4.46 9.26-9.6 19.9q-4.81 10.29-8.58 19.55q-3.77 9.26-4.8 15.09q-0.34 3.43-0.69 5.14q-0.34 1.72-0.34 3.78q0 6.51 2.06 9.26q2.4 2.74 5.49 2.74q8.23 0 16.46-9.26q8.58-9.26 16.12-22.64q7.89-13.37 13.38-25.38q2.06-3.77 3.77-3.77q2.06 0 2.06 2.4q0 1.71-1.37 4.12q-3.78 8.23-9.26 18.86q-5.49 10.63-12.35 20.92q-6.86 10.29-15.09 17.15q-8.24 6.52-17.84 6.52q-8.57 0-14.06-6.17q-5.49-6.52-5.49-18.18q0-9.26 3.43-19.9q-5.83 10.29-13.38 20.58q-7.54 10.29-16.12 17.15q-8.57 6.52-17.15 6.52zm187.97 0q-9.27 0-15.44-9.26q-1.71-2.74-3.09-7.2q-1.37-4.46-1.37-9.95q0-3.09 0.34-6.17q0.35-3.43 1.38-6.86q-4.81 7.54-11.32 16.8q-6.18 8.92-14.41 15.78q-7.89 6.52-17.84 6.52q-3.42 0-7.2-1.03q-9.26-2.75-13.37-9.61q-3.78-6.86-3.78-16.46q0-10.63 4.12-23.32q4.46-12.69 10.97-24.7q6.86-12 14.07-20.58q10.29-12 23.66-19.21q13.38-7.2 27.1-7.2q12.35 0 23.33 6.52q5.14-9.61 10.97-21.27q5.83-12 11.66-23.67q5.83-11.66 10.29-21.26q4.46-9.95 6.86-15.09q5.15-12.01 9.61-15.1q4.8-3.43 11.32-3.43q3.77 0 8.23 1.03q4.8 0.69 9.26 0.35q-2.06 2.05-8.58 12q-6.17 9.6-14.75 24.7q-8.57 15.09-18.52 33.27q-9.6 17.83-19.21 36.36q-9.26 18.17-17.49 34.64q-7.89 16.12-12.69 27.78q-1.37 2.75-4.11 11.32q-2.41 8.23-2.41 14.41q0 4.46 2.06 7.89q2.06 3.08 6.86 3.08q6.52 0 13.04-6.51q6.86-6.86 13.03-16.47q6.17-9.95 10.98-19.21q4.8-9.6 7.2-15.09q1.71-3.77 4.12-3.77q2.05 0 2.05 3.09q0 0.34 0 1.37q0 0.68-0.68 1.71q-3.09 7.21-8.58 17.84q-5.14 10.63-12.35 21.26q-7.2 10.64-16.12 17.84q-8.91 6.86-19.2 6.86zm-59.34-10.29q4.8 0 12-5.14q7.2-5.49 15.44-17.15q9.6-13.72 21.95-34.3q12.35-20.58 24.35-43.57q-4.46-4.11-10.29-4.11q-9.6 0-21.61 8.92q-11.66 8.91-22.98 22.63q-10.98 13.72-18.52 27.79q-5.15 9.6-7.55 17.49q-2.05 7.89-2.05 13.72q0 13.72 9.26 13.72zm150.92 10.63q-6.52 0-13.04-5.14q-6.52-5.49-6.52-17.49q0-9.27 4.46-21.27q4.12-11.66 10.98-22.64q7.2-10.97 10.29-17.83q1.03-2.75 1.03-4.81q0-6.17-7.89-8.91q-7.55-2.75-19.89-3.09l-4.12 11.32q-3.77 10.97-10.63 25.72q-6.52 14.75-14.75 28.47q-7.89 13.72-16.47 21.95q-0.68 0.69-1.71 0.69q-1.37 0-2.06-1.72q-0.34-1.71 1.72-4.11q13.37-17.84 24.01-39.45q10.63-21.95 17.83-44.59q7.55-22.63 10.98-41.84q1.03-5.49 3.77-7.89q2.74-2.75 5.83-2.75q4.46 0 8.23 4.46q3.78 4.12 3.78 12.01q0 1.37-0.35 3.09q0 1.71-0.34 3.43q-1.37 7.2-8.23 13.72q-6.52 6.17-10.63 9.26q3.43 0.34 7.2 0.68q3.77 0 8.23 0q16.12 0 31.9-2.06q0.69 2.06 0.69 3.09q0 4.46-2.75 11.32q-2.4 6.86-5.14 12.35q-1.37 3.09-5.49 11.32q-4.12 7.89-8.92 18.18q-4.8 9.94-8.23 19.89q-3.09 9.6-3.09 16.46q0 8.92 6.86 8.92q5.15 0 11.32-6.51q6.18-6.86 12.01-16.47q6.17-9.95 10.97-19.21q5.15-9.6 7.89-15.09q1.37-3.43 3.77-3.43q1.38 0 1.38 2.4q0 1.37-1.03 4.12q-3.78 7.89-8.92 17.83q-5.15 9.95-11.66 19.56q-6.18 9.6-13.72 16.8q-7.21 6.86-15.78 8.92q-1.03 0.34-3.77 0.34zm122.79 0.69q-3.77 0.34-8.58-1.72q-4.8-2.05-8.57-7.54q-3.43-5.49-3.43-15.44q0-8.23 3.09-19.89q-4.12 6.52-10.64 16.12q-6.51 9.26-14.06 16.46q-6.52 6.18-12.35 8.92q-5.83 2.75-10.63 2.75q-8.92 0-14.41-7.89q-5.48-8.23-5.48-21.27q0-13.72 6.86-31.21q6.86-17.49 22.29-36.36q9.95-12 24.01-19.21q14.41-7.54 28.13-7.54q7.89 0 15.09 2.74q7.2 2.4 12.69 8.23q2.4 2.4 2.4 5.49q0 2.06-1.71 3.43q-1.72 1.37-4.46 0.69q-3.78-12.01-16.12-12.01q-5.83 0-13.38 3.77q-11.66 6.18-24.35 20.24q-12.35 14.06-21.61 29.16q-1.38 2.05-4.46 7.89q-2.75 5.83-5.49 13.03q-2.74 7.2-3.77 14.06q-0.35 2.06-0.35 3.09q0 0.69 0 2.4q0 11.32 8.58 11.32q10.29 0 23.32-15.09q8.92-10.98 16.12-22.98q7.21-12.01 14.75-25.73q5.15-9.26 9.61-15.43q4.46-6.18 12.69-6.18q3.77 0 7.54 1.03q3.78 1.03 7.89 0.34q-2.74 2.75-7.54 10.29q-4.46 7.55-9.61 17.15q-5.14 9.61-9.26 19.56q-4.11 9.94-5.83 17.15q-0.34 2.05-1.03 5.83q-0.34 3.77-0.34 5.48q0 9.61 5.49 9.61q5.49 0 11.66-6.52q6.52-6.52 12.69-16.12q6.17-9.6 11.32-19.21q5.14-9.94 8.23-16.12q1.37-3.43 4.12-3.43q1.71 0 1.71 2.4q0 1.03-1.03 3.78q-4.11 8.57-9.94 19.55q-5.83 10.63-12.7 20.92q-6.86 9.95-14.4 16.81q-7.2 6.51-14.75 7.2z" />
</svg>